<svg width="100" height="29" viewBox="0 0 100 29" fill="none" xmlns="http://www.w3.org/2000/svg">
<path fill-rule="evenodd" clip-rule="evenodd" d="M38.1136 6.66287V19.7054H42.8663V21.955H35.5832V6.66287H38.1136ZM51.7989 13.1509V11.7754H54.1969V21.955H51.7983V20.5784C51.4761 21.0882 51.0174 21.489 50.4229 21.78C49.8295 22.071 49.2316 22.2165 48.6302 22.2165C47.8527 22.2165 47.1411 22.0744 46.496 21.7908C45.8679 21.5192 45.3024 21.1215 44.8346 20.6222C44.3721 20.1265 44.0066 19.5485 43.757 18.9182C43.4976 18.2648 43.3668 17.5676 43.3716 16.8646C43.3716 16.1513 43.5001 15.4704 43.757 14.8219C44.005 14.1877 44.3706 13.6061 44.8346 13.1077C45.3025 12.6083 45.868 12.2104 46.496 11.9385C47.1411 11.6543 47.8527 11.5123 48.6302 11.5123C49.2316 11.5123 49.8295 11.6583 50.4234 11.9499C51.0174 12.2409 51.4761 12.6416 51.7989 13.1509ZM51.5784 18.11C51.726 17.7116 51.8007 17.29 51.7989 16.8652C51.7989 16.4276 51.725 16.0127 51.5784 15.6193C51.4406 15.241 51.2317 14.8926 50.9628 14.5928C50.6938 14.2981 50.3683 14.0604 50.0057 13.8937C49.6311 13.7193 49.2168 13.6317 48.7621 13.6317C48.3074 13.6317 47.8964 13.7193 47.5298 13.8937C47.1632 14.0688 46.8478 14.3018 46.5841 14.5928C46.3159 14.8911 46.1102 15.2402 45.9793 15.6193C45.8385 16.0193 45.7678 16.4406 45.7701 16.8646C45.7701 17.3017 45.8395 17.7172 45.9793 18.1094C46.1101 18.4888 46.3157 18.8381 46.5841 19.1364C46.8502 19.4295 47.1716 19.667 47.5298 19.8355C47.8964 20.0106 48.3074 20.0976 48.7621 20.0976C49.2168 20.0976 49.6317 20.0106 50.0057 19.8361C50.3684 19.6696 50.6939 19.4319 50.9628 19.137C51.2318 18.8372 51.4407 18.4885 51.5784 18.11ZM56.089 21.9545V11.7748H62.602V14.1177H58.487V21.9545H56.089ZM71.2931 13.1509V11.7754H73.691V21.955H71.2925V20.5784C70.9697 21.0882 70.5115 21.489 69.917 21.78C69.3236 22.071 68.7257 22.2165 68.1244 22.2165C67.3463 22.2165 66.6352 22.0744 65.9901 21.7908C65.3621 21.5192 64.7966 21.1215 64.3288 20.6222C63.8663 20.1265 63.5007 19.5485 63.2511 18.9182C62.9917 18.2648 62.8609 17.5676 62.8658 16.8646C62.8658 16.1513 62.9936 15.4704 63.2511 14.8219C63.4991 14.1877 63.8647 13.6061 64.3288 13.1077C64.7966 12.6083 65.3621 12.2104 65.9901 11.9385C66.6352 11.6543 67.3463 11.5123 68.1244 11.5123C68.7257 11.5123 69.3236 11.6583 69.9176 11.9499C70.5115 12.2409 70.9697 12.6416 71.2931 13.1509ZM71.0725 18.11C71.22 17.7116 71.2945 17.29 71.2925 16.8652C71.2925 16.4276 71.2186 16.0127 71.0725 15.6193C70.9346 15.241 70.7254 14.8925 70.4564 14.5928C70.1874 14.2981 69.8619 14.0604 69.4993 13.8937C69.1253 13.7193 68.7109 13.6317 68.2562 13.6317C67.8015 13.6317 67.3906 13.7193 67.024 13.8937C66.6574 14.0688 66.3419 14.3018 66.0782 14.5928C65.8098 14.8911 65.604 15.2401 65.4729 15.6193C65.3321 16.0193 65.2613 16.4406 65.2637 16.8646C65.2637 17.3017 65.3331 17.7172 65.4729 18.1094C65.6038 18.4888 65.8097 18.8381 66.0782 19.1364C66.3444 19.4295 66.6658 19.667 67.024 19.8355C67.3906 20.0106 67.8015 20.0976 68.2562 20.0976C68.7109 20.0976 69.1258 20.0106 69.4993 19.8361C69.862 19.6696 70.1875 19.4319 70.4564 19.137C70.7256 18.8372 70.9347 18.4886 71.0725 18.11ZM83.3057 11.7748H85.7349L81.7983 21.9545H78.7848L74.8482 11.7748H77.2775L80.2916 19.5701L83.3057 11.7748ZM90.9651 11.5134C94.231 11.5134 96.4579 14.3865 96.0396 17.7496H88.0834C88.0834 18.6277 88.9764 20.3255 91.097 20.3255C92.9215 20.3255 94.1435 18.7323 94.1446 18.7312L95.7645 19.9759C94.3162 21.5117 93.1301 22.217 91.2726 22.217C87.9533 22.217 85.7042 20.1322 85.7042 16.8652C85.7042 13.9097 88.0289 11.5134 90.9651 11.5134ZM88.0897 15.9803H93.8371C93.8195 15.7842 93.508 13.4044 90.9464 13.4044C88.3847 13.4044 88.1084 15.7842 88.0897 15.9803ZM97.6015 21.9545V6.66287H100V21.9545H97.6015ZM28.2846 6.54351C28.2951 6.58205 28.3005 6.6218 28.3006 6.66174V12.8707C28.3004 12.9505 28.2792 13.0289 28.2389 13.0979C28.1987 13.1669 28.1409 13.224 28.0715 13.2634L22.8231 16.2639V22.2108C22.8229 22.2905 22.8016 22.3688 22.7614 22.4377C22.7211 22.5066 22.6634 22.5636 22.5941 22.603L11.6392 28.8659C11.6142 28.8807 11.5863 28.8892 11.5596 28.8989C11.5488 28.9023 11.5392 28.9085 11.5289 28.9114C11.4522 28.9315 11.3715 28.9315 11.2948 28.9114C11.2823 28.908 11.2709 28.9011 11.259 28.8966C11.2334 28.8881 11.2078 28.8795 11.1839 28.8659L0.228487 22.6041C0.159065 22.5646 0.101354 22.5073 0.0612206 22.4382C0.0210877 22.3692 -3.50618e-05 22.2907 4.36868e-08 22.2108V3.58398C9.02685e-05 3.54405 0.00544114 3.5043 0.0159146 3.46576C0.0193248 3.45212 0.0272821 3.44018 0.0318291 3.42768C0.0409231 3.40381 0.0488803 3.37937 0.0613846 3.3572C0.0699102 3.34242 0.0824145 3.33049 0.0920769 3.31741C0.105718 3.29923 0.117085 3.2799 0.133 3.26399C0.146073 3.25091 0.163124 3.24125 0.177902 3.22988C0.194385 3.21738 0.209162 3.2026 0.227919 3.1918L0.228487 3.19123L5.70649 0.0600525C5.7758 0.0206925 5.85414 0 5.93384 0C6.01355 0 6.09188 0.0206925 6.16119 0.0600525L11.6392 3.19123H11.6403C11.6585 3.2026 11.6733 3.21738 11.6903 3.22988C11.7051 3.24125 11.7216 3.25091 11.7347 3.26399C11.7506 3.2799 11.762 3.29923 11.7756 3.31684C11.7858 3.33049 11.7983 3.34242 11.8069 3.3572C11.8194 3.37937 11.8273 3.40381 11.8364 3.42768C11.841 3.44018 11.8484 3.45212 11.8523 3.46576C11.8626 3.50432 11.8678 3.54407 11.8677 3.58398V15.2181L16.4329 12.6087V6.66174C16.4328 6.62183 16.4379 6.58208 16.4482 6.54351C16.4522 6.52987 16.4596 6.51851 16.4647 6.50543C16.4732 6.48156 16.4812 6.45712 16.4937 6.43495C16.5022 6.42018 16.5147 6.40824 16.525 6.39517C16.5386 6.37698 16.55 6.35766 16.5659 6.34231C16.5789 6.32924 16.5954 6.31957 16.6102 6.30821C16.6273 6.29513 16.642 6.27979 16.6608 6.26956V6.26899L22.1388 3.13781C22.2081 3.09823 22.2866 3.07742 22.3664 3.07742C22.4463 3.07742 22.5247 3.09823 22.5941 3.13781L28.0715 6.26899C28.0908 6.28036 28.1062 6.29513 28.1232 6.30764C28.1374 6.31901 28.1545 6.32924 28.1676 6.34174C28.1835 6.35766 28.1948 6.37698 28.2079 6.3946C28.2181 6.40824 28.2306 6.42018 28.2392 6.43495C28.2522 6.45712 28.2596 6.48156 28.2687 6.50543C28.2738 6.51851 28.2812 6.52987 28.2846 6.54351ZM27.3877 12.6087V7.44553L25.4706 8.54135L22.8231 10.0549V15.2181L27.3877 12.6087ZM21.9103 21.9488V16.7822L19.3049 18.2589L11.8677 22.4734V27.6882L21.9103 21.9476V21.9488ZM0.912811 4.36777V21.9488L10.9549 27.6894V22.4751L5.70876 19.5275L5.70763 19.5258L5.70535 19.5252C5.68717 19.515 5.67296 19.5002 5.65647 19.4877C5.6417 19.4763 5.62578 19.4672 5.61271 19.4547L5.61157 19.453C5.59679 19.4388 5.58656 19.4212 5.57406 19.4053C5.56269 19.3905 5.54905 19.3774 5.53996 19.3615L5.53939 19.3598C5.52916 19.3428 5.52291 19.3223 5.51552 19.303C5.50813 19.2865 5.49847 19.2706 5.49392 19.2524C5.48767 19.2308 5.4871 19.2075 5.48426 19.1853C5.48255 19.1683 5.47744 19.1518 5.47744 19.1342V6.97662L2.83051 5.4636L0.912811 4.36777ZM5.93384 0.975706L1.37149 3.58455L5.93384 6.19226L10.4968 3.58398L5.93384 0.975706ZM8.30738 17.2528L10.9549 15.7398V4.36777L9.03831 5.4636L6.39025 6.97718V18.3487L8.30738 17.2528ZM22.3667 4.05403L17.8038 6.66174L22.3667 9.27001L26.9291 6.66174L22.3667 4.05403ZM21.9103 10.0549L19.2622 8.54135L17.3457 7.44553V12.6087L19.9932 14.1222L21.9103 15.2181V10.0549ZM11.4107 21.6896L18.1033 17.8962L21.4488 16.0001L16.8893 13.3936L11.6392 16.3946L6.85461 19.1296L11.4107 21.6896Z" fill="#FF2D20"/>
</svg>
